<svg width="24" height="25" viewBox="0 0 24 25" fill="none" xmlns="http://www.w3.org/2000/svg">
<path fill-rule="evenodd" clip-rule="evenodd" d="M8.0004 4.98077C6.8964 4.98077 6 5.87717 6 6.98117V19.982C4.896 19.982 3.9996 19.0868 3.9996 17.9828V6.98117C3.9996 6.45583 4.1031 5.93564 4.30417 5.45031C4.50524 4.96498 4.79996 4.52401 5.17148 4.1526C5.54301 3.78119 5.98406 3.4866 6.46945 3.28567C6.95485 3.08475 7.47507 2.98141 8.0004 2.98157H17.0004C18.1044 2.98157 19.0008 3.87677 19.0008 4.98077V6.98117H17.0004V4.98077H8.0004Z" fill="white"/>
<path fill-rule="evenodd" clip-rule="evenodd" d="M3.9996 7.97965C3.9996 6.87565 4.896 5.97925 6 5.97925H18C19.104 5.97925 20.0004 6.87445 20.0004 7.97965V20.9805C20.0004 22.0845 19.1052 22.9797 18 22.9797H6C4.896 22.9797 3.9996 22.0845 3.9996 20.9805V7.97965ZM18 7.97965H6V20.9805H18V7.97965Z" fill="white"/>
<path fill-rule="evenodd" clip-rule="evenodd" d="M10.002 5.97925C10.554 5.97925 11.0016 6.42685 11.0016 6.97885V13.9784C11.0016 14.2437 10.8962 14.4981 10.7086 14.6857C10.5211 14.8733 10.2667 14.9786 10.0014 14.9786C9.73612 14.9786 9.48172 14.8733 9.29414 14.6857C9.10657 14.4981 9.00119 14.2437 9.00119 13.9784V6.97885C9.00119 6.42685 9.44999 5.97925 10.002 5.97925Z" fill="white"/>
</svg>
