<svg width="40" height="40" viewBox="0 0 40 40" fill="none" xmlns="http://www.w3.org/2000/svg">
<rect width="40" height="40" rx="2" fill="white" fill-opacity="0.1"/>
<path d="M17.9698 15.7197C17.8291 15.8604 17.7502 16.0511 17.7502 16.25C17.7502 16.4488 17.8291 16.6396 17.9698 16.7802L21.1895 20L17.9698 23.2197C17.8981 23.2889 17.841 23.3717 17.8017 23.4632C17.7624 23.5547 17.7417 23.6531 17.7408 23.7527C17.7399 23.8522 17.7589 23.951 17.7966 24.0432C17.8343 24.1353 17.89 24.2191 17.9605 24.2895C18.0309 24.3599 18.1146 24.4156 18.2068 24.4533C18.299 24.491 18.3977 24.51 18.4973 24.5091C18.5969 24.5083 18.6953 24.4876 18.7868 24.4483C18.8783 24.409 18.9611 24.3518 19.0303 24.2802L22.7803 20.5302C22.9209 20.3896 22.9998 20.1988 22.9998 20C22.9998 19.8011 22.9209 19.6104 22.7803 19.4697L19.0303 15.7197C18.8896 15.5791 18.6989 15.5001 18.5 15.5001C18.3011 15.5001 18.1104 15.5791 17.9698 15.7197Z" fill="white"/>
</svg>
