<svg width="45" height="45" viewBox="0 0 45 45" fill="none" xmlns="http://www.w3.org/2000/svg">
<rect x="0.529968" y="0.981201" width="44" height="44" rx="2" fill="#2660AB"/>
<path fill-rule="evenodd" clip-rule="evenodd" d="M21.5304 15.9816C19.9391 15.9816 18.4129 16.6137 17.2877 17.7389C16.1625 18.8641 15.5304 20.3903 15.5304 21.9816C15.5304 23.5729 16.1625 25.099 17.2877 26.2242C18.4129 27.3494 19.9391 27.9816 21.5304 27.9816C23.1217 27.9816 24.6478 27.3494 25.773 26.2242C26.8982 25.099 27.5304 23.5729 27.5304 21.9816C27.5304 20.3903 26.8982 18.8641 25.773 17.7389C24.6478 16.6137 23.1217 15.9816 21.5304 15.9816ZM13.53 21.9816C13.5301 20.6959 13.84 19.4292 14.4335 18.2887C15.027 17.1482 15.8867 16.1676 16.9396 15.4299C17.9926 14.6921 19.2078 14.219 20.4824 14.0506C21.757 13.8822 23.0534 14.0235 24.2618 14.4624C25.4703 14.9014 26.5551 15.6251 27.4245 16.5723C28.2938 17.5195 28.9221 18.6622 29.2561 19.9037C29.5901 21.1453 29.62 22.449 29.3432 23.7045C29.0664 24.9601 28.4911 26.1304 27.666 27.1164L30.4092 29.8596C30.5968 30.0472 30.7022 30.3016 30.7022 30.567C30.7022 30.8323 30.5968 31.0868 30.4092 31.2744C30.2216 31.462 29.9671 31.5674 29.7018 31.5674C29.4364 31.5674 29.182 31.462 28.9944 31.2744L26.1984 28.4784C25.0031 29.3371 23.5941 29.8495 22.1264 29.9591C20.6587 30.0688 19.1892 29.7714 17.8796 29.0998C16.57 28.4282 15.471 27.4084 14.7036 26.1525C13.9362 24.8966 13.5301 23.4534 13.53 21.9816Z" fill="white"/>
</svg>
