<svg width="24" height="24" viewBox="0 0 24 24" fill="none" xmlns="http://www.w3.org/2000/svg">
<path d="M14.715 14.08C14.5865 14.0799 14.4595 14.0519 14.3428 13.9979C14.2262 13.9439 14.1227 13.8652 14.0394 13.7673C13.9562 13.6693 13.8953 13.5544 13.8609 13.4305C13.8264 13.3067 13.8193 13.1768 13.84 13.05L14.07 11.643H12.273L11.995 13.336C11.979 13.4533 11.9396 13.5663 11.8791 13.6682C11.8187 13.7701 11.7385 13.8588 11.6432 13.9292C11.5479 13.9996 11.4395 14.0501 11.3243 14.0779C11.2091 14.1057 11.0896 14.1101 10.9727 14.091C10.8558 14.0718 10.7439 14.0294 10.6437 13.9663C10.5434 13.9032 10.4568 13.8206 10.389 13.7235C10.3212 13.6264 10.2735 13.5167 10.2488 13.4008C10.2241 13.285 10.2228 13.1653 10.245 13.049L10.475 11.643H10.176C10.0555 11.647 9.93544 11.6267 9.82292 11.5834C9.7104 11.54 9.60774 11.4745 9.52107 11.3907C9.4344 11.3068 9.36547 11.2064 9.3184 11.0954C9.27133 10.9844 9.24707 10.8651 9.24707 10.7445C9.24707 10.6239 9.27133 10.5045 9.3184 10.3935C9.36547 10.2825 9.4344 10.1821 9.52107 10.0983C9.60774 10.0144 9.7104 9.94891 9.82292 9.90557C9.93544 9.86222 10.0555 9.84196 10.176 9.84598H10.771L11.059 8.08798H10.76C10.6395 8.092 10.5194 8.07174 10.4069 8.02839C10.2944 7.98505 10.1917 7.91951 10.1051 7.83568C10.0184 7.75185 9.94947 7.65144 9.9024 7.54042C9.85533 7.42941 9.83107 7.31006 9.83107 7.18948C9.83107 7.0689 9.85533 6.94955 9.9024 6.83853C9.94947 6.72752 10.0184 6.62711 10.1051 6.54328C10.1917 6.45945 10.2944 6.39391 10.4069 6.35057C10.5194 6.30722 10.6395 6.28696 10.76 6.29098H11.354L11.632 4.59798C11.6481 4.48061 11.6875 4.36766 11.748 4.26577C11.8084 4.16389 11.8886 4.07514 11.9839 4.00477C12.0792 3.9344 12.1876 3.88383 12.3028 3.85605C12.418 3.82826 12.5375 3.82382 12.6544 3.84299C12.7713 3.86216 12.8832 3.90456 12.9834 3.96767C13.0837 4.03078 13.1703 4.11333 13.2381 4.21045C13.3059 4.30758 13.3536 4.4173 13.3783 4.53315C13.403 4.649 13.4043 4.76863 13.382 4.88498L13.1521 6.29098H14.948L15.226 4.59798C15.2421 4.48061 15.2815 4.36766 15.342 4.26577C15.4024 4.16389 15.4826 4.07514 15.5779 4.00477C15.6732 3.9344 15.7816 3.88383 15.8968 3.85605C16.0119 3.82826 16.1315 3.82382 16.2484 3.84299C16.3653 3.86216 16.4772 3.90456 16.5774 3.96767C16.6777 4.03078 16.7643 4.11333 16.8321 4.21045C16.8999 4.30758 16.9476 4.4173 16.9723 4.53315C16.997 4.649 16.9983 4.76863 16.976 4.88498L16.746 6.29098H17.046C17.1666 6.28696 17.2867 6.30722 17.3992 6.35057C17.5117 6.39391 17.6144 6.45945 17.701 6.54328C17.7877 6.62711 17.8566 6.72752 17.9037 6.83853C17.9508 6.94955 17.975 7.0689 17.975 7.18948C17.975 7.31006 17.9508 7.42941 17.9037 7.54042C17.8566 7.65144 17.7877 7.75185 17.701 7.83568C17.6144 7.91951 17.5117 7.98505 17.3992 8.02839C17.2867 8.07174 17.1666 8.092 17.046 8.08798H16.451L16.163 9.84598H16.4611C16.6942 9.85376 16.9151 9.95183 17.0773 10.1195C17.2394 10.2871 17.3301 10.5112 17.3301 10.7445C17.3301 10.9777 17.2394 11.2018 17.0773 11.3695C16.9151 11.5371 16.6942 11.6352 16.4611 11.643H15.868L15.59 13.336C15.5561 13.5436 15.4495 13.7324 15.2892 13.8687C15.1289 14.005 14.9254 14.0799 14.715 14.08ZM14.654 8.08798H12.856L12.568 9.84598H14.365L14.654 8.08798Z" fill="white"/>
<path d="M0.506897 14.908C0.174897 14.708 -0.0131035 14.337 0.0238965 13.951L0.907897 4.67002C0.944897 4.28402 1.1999 3.95402 1.5649 3.82102L11.8489 0.0800195C11.9589 0.0400195 12.0749 0.0200195 12.1919 0.0200195H20.7969C21.2449 0.0200195 21.6399 0.31802 21.7629 0.75002L23.9409 8.40302C24.0209 8.68202 23.9749 8.98302 23.8169 9.22502L18.3369 17.64C18.2459 17.78 18.1215 17.8952 17.9748 17.9749C17.8281 18.0547 17.6639 18.0967 17.4969 18.097H10.3399C10.1229 18.097 9.9119 18.167 9.7379 18.297L3.7119 22.817C3.55846 22.9323 3.37522 23.0011 3.18385 23.0155C2.99249 23.0298 2.80103 22.989 2.63215 22.8979C2.46327 22.8067 2.32404 22.6691 2.23095 22.5013C2.13786 22.3335 2.09481 22.1425 2.1069 21.951L2.4359 16.698C2.44741 16.5142 2.40816 16.3308 2.32244 16.1679C2.23673 16.0049 2.10785 15.8687 1.9499 15.774L0.505896 14.908H0.506897ZM12.3699 2.02802L2.8469 5.49202L2.0839 13.512L2.9839 14.052C3.45748 14.3362 3.84386 14.745 4.10082 15.2339C4.35777 15.7227 4.47542 16.2728 4.4409 16.824L4.2489 19.906L8.5339 16.692C9.05517 16.3009 9.6892 16.0893 10.3409 16.089H16.9509L21.8839 8.51402L20.0379 2.03002H12.3679L12.3699 2.02802Z" fill="white"/>
</svg>
