<svg width="17" height="17" viewBox="0 0 17 17" fill="none" xmlns="http://www.w3.org/2000/svg">
<path d="M8.91909 13.0934C8.75975 12.9967 8.55989 12.9967 8.40055 13.0934L5.30842 14.9686C4.93598 15.1945 4.47289 14.8692 4.55902 14.4422L5.31508 10.6942C5.34914 10.5253 5.29389 10.3508 5.16886 10.2324L2.44188 7.64837C2.13296 7.35565 2.30767 6.83542 2.73064 6.78848L6.33555 6.38842C6.51524 6.36848 6.67017 6.25308 6.74074 6.08663L8.19948 2.64567C8.37179 2.23921 8.94785 2.23921 9.12016 2.64567L10.5789 6.08663C10.6495 6.25308 10.8044 6.36848 10.9841 6.38842L14.589 6.78848C15.012 6.83542 15.1867 7.35565 14.8777 7.64837L12.1508 10.2324C12.0257 10.3508 11.9705 10.5253 12.0045 10.6942L12.7606 14.4422C12.8467 14.8692 12.3836 15.1945 12.0112 14.9686L8.91909 13.0934Z" fill="url(#paint0_linear_2001_2330)"/>
<defs>
<linearGradient id="paint0_linear_2001_2330" x1="2.28516" y1="2.34082" x2="15.0345" y2="2.34082" gradientUnits="userSpaceOnUse">
<stop offset="0.5" stop-color="#D3DADF"/>
</linearGradient>
</defs>
</svg>
