<svg width="21" height="21" viewBox="0 0 21 21" fill="none" xmlns="http://www.w3.org/2000/svg">
<path d="M11.343 2.46042C11.3124 2.41548 11.2814 2.37081 11.25 2.32642C10.603 1.40342 9.43597 0.110419 7.78697 0.110419C7.20424 0.100307 6.62739 0.228221 6.10355 0.483707C5.57972 0.739193 5.12377 1.115 4.77297 1.58042C4.45385 1.99688 4.21078 2.46642 4.05497 2.96742C4.05155 2.97839 4.04821 2.98939 4.04497 3.00042L4.04197 3.01342L4.04097 3.01742V3.02042L4.03997 3.02242L4.00997 3.21842V3.23242L4.00897 3.25042C4.00701 3.30745 4.00834 3.36454 4.01297 3.42142C4.02979 3.65786 4.08308 3.89028 4.17097 4.11042H2.21997C1.82215 4.11042 1.44062 4.26845 1.15931 4.54976C0.878006 4.83106 0.719971 5.21259 0.719971 5.61042V9.61042C0.719808 9.92074 0.815899 10.2235 0.994999 10.4769C1.1741 10.7303 1.42739 10.922 1.71997 11.0254V18.6104C1.71997 19.0082 1.87801 19.3898 2.15931 19.6711C2.44062 19.9524 2.82215 20.1104 3.21997 20.1104H18.22C18.6178 20.1104 18.9993 19.9524 19.2806 19.6711C19.5619 19.3898 19.72 19.0082 19.72 18.6104V11.0254C20.0125 10.922 20.2658 10.7303 20.4449 10.4769C20.624 10.2235 20.7201 9.92074 20.72 9.61042V5.61042C20.72 5.21259 20.5619 4.83106 20.2806 4.54976C19.9993 4.26845 19.6178 4.11042 19.22 4.11042H17.364C17.4052 3.95021 17.428 3.78581 17.432 3.62042V3.57642L17.431 3.55942V3.54542L17.4 3.34842V3.34542L17.398 3.34042L17.395 3.32842L17.386 3.29842C17.348 3.17199 17.3029 3.0478 17.251 2.92642C17.1246 2.63123 16.9616 2.35305 16.766 2.09842C16.4607 1.69429 16.0642 1.36798 15.6089 1.14607C15.1537 0.924163 14.6524 0.812925 14.146 0.821419C12.852 0.821419 11.911 1.72342 11.343 2.46042ZM8.15797 4.11042C6.71797 4.11042 6.26397 3.70842 6.13497 3.55242C6.0896 3.4991 6.05405 3.43816 6.02997 3.37242C6.03597 3.35842 6.04197 3.34242 6.04997 3.32742C6.11197 3.18142 6.21097 2.98942 6.35597 2.80142C6.63097 2.44442 7.05597 2.11042 7.78697 2.11042C8.36197 2.11042 9.00497 2.60742 9.61197 3.47342C9.74797 3.66742 9.86897 3.86142 9.97597 4.04642C9.56197 4.08242 8.97597 4.11042 8.15797 4.11042ZM2.71997 6.11042H18.72V9.11042H2.71997V6.11042ZM12.65 4.08042C12.6954 4.00806 12.7424 3.93671 12.791 3.86642C13.287 3.15942 13.769 2.82142 14.146 2.82142C14.68 2.82142 14.982 3.05942 15.183 3.32142C15.279 3.44542 15.349 3.57342 15.396 3.67842C15.3878 3.69163 15.3787 3.70432 15.369 3.71642C15.309 3.78942 15.003 4.10042 13.895 4.11042H13.725C13.3661 4.11049 13.0073 4.10048 12.649 4.08042H12.65ZM17.72 11.1104V18.1104H3.71997V11.1104H17.72Z" fill="white"/>
</svg>
