<svg width="33" height="33" viewBox="0 0 33 33" fill="none" xmlns="http://www.w3.org/2000/svg">
<path d="M3.64008 2.98022C3.37486 2.98022 3.12051 3.08558 2.93297 3.27312C2.74543 3.46065 2.64008 3.71501 2.64008 3.98022C2.64008 4.24544 2.74543 4.49979 2.93297 4.68733C3.12051 4.87487 3.37486 4.98022 3.64008 4.98022H5.64008V23.9802C5.64016 24.116 5.66787 24.2503 5.72153 24.3749C5.77518 24.4996 5.85366 24.6121 5.95218 24.7054C6.0507 24.7988 6.16719 24.8711 6.29457 24.918C6.42194 24.9649 6.55753 24.9854 6.69308 24.9782L24.2161 24.0562C24.8572 24.0225 25.4707 23.7841 25.9662 23.3758C26.4618 22.9676 26.8133 22.4111 26.9691 21.7882L30.6101 7.22222C30.6467 7.07491 30.6492 6.9212 30.6176 6.77274C30.5859 6.62429 30.5209 6.48499 30.4274 6.3654C30.334 6.2458 30.2145 6.14906 30.0781 6.0825C29.9416 6.01594 29.7919 5.9813 29.6401 5.98122H7.64008V3.98122C7.64008 3.71601 7.53472 3.46165 7.34718 3.27412C7.15965 3.08658 6.90529 2.98122 6.64008 2.98122H3.64008V2.98022ZM7.64008 14.9802V7.98022H28.3601L26.6101 14.9802H7.64008ZM7.64008 16.9802H26.1101L25.0291 21.3032C24.9771 21.5109 24.8599 21.6964 24.6947 21.8325C24.5294 21.9686 24.3249 22.0481 24.1111 22.0592L7.64008 22.9262V16.9802ZM9.64008 28.9802C9.64008 29.5107 9.42936 30.0194 9.05429 30.3944C8.67922 30.7695 8.17051 30.9802 7.64008 30.9802C7.10964 30.9802 6.60093 30.7695 6.22586 30.3944C5.85079 30.0194 5.64008 29.5107 5.64008 28.9802C5.64008 28.4498 5.85079 27.9411 6.22586 27.566C6.60093 27.1909 7.10964 26.9802 7.64008 26.9802C8.17051 26.9802 8.67922 27.1909 9.05429 27.566C9.42936 27.9411 9.64008 28.4498 9.64008 28.9802ZM19.6401 30.9802C20.1705 30.9802 20.6792 30.7695 21.0543 30.3944C21.4294 30.0194 21.6401 29.5107 21.6401 28.9802C21.6401 28.4498 21.4294 27.9411 21.0543 27.566C20.6792 27.1909 20.1705 26.9802 19.6401 26.9802C19.1096 26.9802 18.6009 27.1909 18.2259 27.566C17.8508 27.9411 17.6401 28.4498 17.6401 28.9802C17.6401 29.5107 17.8508 30.0194 18.2259 30.3944C18.6009 30.7695 19.1096 30.9802 19.6401 30.9802Z" fill="white"/>
</svg>
