<svg width="33" height="33" viewBox="0 0 33 33" fill="none" xmlns="http://www.w3.org/2000/svg">
<path d="M13.767 4.41824C14.8612 3.98364 16.0566 3.8702 17.213 4.09124C18.3657 4.30941 19.4304 4.8572 20.278 5.66824C21.1179 6.47092 21.6949 7.50918 21.933 8.64624C22.1678 9.77995 22.0473 10.9585 21.588 12.0212C21.1239 13.0907 20.3509 13.9972 19.368 14.6242C18.3773 15.2574 17.2258 15.593 16.05 15.5912H16.049C14.4756 15.5937 12.9618 14.9891 11.823 13.9032C11.2657 13.372 10.8213 12.7337 10.5167 12.0266C10.212 11.3195 10.0533 10.5582 10.05 9.78824V9.78624C10.05 8.62924 10.407 7.50124 11.072 6.54624C11.7422 5.58796 12.6794 4.84792 13.767 4.41824ZM19.975 9.05224C19.8191 8.31006 19.4419 7.6326 18.893 7.10924C18.3242 6.56697 17.6104 6.20122 16.838 6.05624C16.0556 5.90694 15.2468 5.98324 14.506 6.27624C13.7832 6.56107 13.16 7.05209 12.714 7.68824C12.2835 8.30328 12.0517 9.03548 12.05 9.78624C12.051 10.7822 12.463 11.7462 13.21 12.4622C13.623 12.8602 14.122 13.1642 14.667 13.3562C15.105 13.5102 15.572 13.5912 16.05 13.5922C16.85 13.5922 17.629 13.3642 18.288 12.9412C18.466 12.8262 18.633 12.6992 18.788 12.5612C19.205 12.1882 19.534 11.7342 19.751 11.2302C20.0486 10.5447 20.1268 9.78396 19.975 9.05224ZM23.359 20.2012C21.1512 18.8765 18.6248 18.1767 16.05 18.1767C13.4752 18.1767 10.9489 18.8765 8.74102 20.2012C7.61518 20.8768 6.68347 21.8324 6.03664 22.975C5.38981 24.1176 5.04991 25.4083 5.05002 26.7212V27.9812C5.05002 28.9812 6.05002 29.9812 7.05002 29.9812H25.05C26.05 29.9812 27.05 28.9812 27.05 27.9812V26.7212C27.0501 25.4083 26.7102 24.1176 26.0634 22.975C25.4166 21.8324 24.4849 20.8768 23.359 20.2012ZM9.77002 21.9162C11.667 20.778 13.8377 20.1768 16.05 20.1768C18.2623 20.1768 20.433 20.778 22.33 21.9162C23.1596 22.414 23.8461 23.1181 24.3227 23.96C24.7994 24.8019 25.05 25.7528 25.05 26.7202V27.9822H7.05002V26.7202C7.05008 25.7528 7.30064 24.8019 7.7773 23.96C8.25396 23.1181 8.94048 22.414 9.77002 21.9162Z" fill="white"/>
</svg>
