<svg width="170" height="49" viewBox="0 0 170 49" fill="none" xmlns="http://www.w3.org/2000/svg">
<path d="M62.976 5.78516L69.15 45.7932L74.702 45.7752L68.554 5.79716L62.976 5.78516Z" fill="white"/>
<path d="M62.718 5.78516H53.266V45.6632H62.718V5.78516Z" fill="white"/>
<path d="M34.744 5.78516H0V45.6632H31.28L34.744 5.78516Z" fill="white"/>
<path d="M39.656 45.6612H50.21L50.25 5.78516H43.116L39.656 45.6612Z" fill="white"/>
<path d="M94.914 24.2432H91.64V16.6852C90.326 17.5452 88.776 17.9852 87.2 17.9532C84.38 17.9532 81.54 16.4532 81.54 12.0652V5.84521H84.806V11.1552C84.806 14.0992 86.244 14.9372 88.078 14.9372C89.3576 14.9075 90.5987 14.4936 91.64 13.7492V5.84521H94.914V24.2452V24.2432Z" fill="white"/>
<path d="M98.468 24.2432V5.84521H101.742V18.9332L111.502 5.84521H114.37V24.2452H111.104V11.1772L101.344 24.2412L98.468 24.2432Z" fill="white"/>
<path d="M117.22 5.84521H132.56V8.86521H126.526V24.2452H123.254V8.86521H117.218L117.22 5.84521Z" fill="white"/>
<path d="M137.628 5.79126H140.504L148.372 24.2253H144.89L142.946 19.5213H134.998L133.054 24.2253H129.76L137.628 5.79126ZM136.248 16.4953H141.7L138.988 9.95526L136.248 16.4953Z" fill="white"/>
<path d="M150.36 24.2432V5.84521H153.626V18.9332L163.386 5.84521H166.26V24.2452H162.988V11.1772L153.228 24.2412L150.36 24.2432Z" fill="white"/>
<path d="M81.406 27.3011H91.91V30.3211H84.674V45.6931H81.406V27.3011Z" fill="white"/>
<path d="M163.42 0.981201H153.88V4.0212H161.202L163.42 0.981201Z" fill="white"/>
<path d="M102.492 27.0092C108.022 27.0092 112.198 30.7672 112.198 36.5232C112.198 42.0432 108.022 46.0372 102.494 46.0372C96.964 46.0372 92.814 42.2852 92.814 36.5232C92.814 31.1712 96.778 27.0092 102.494 27.0092H102.492ZM102.492 42.9572C106.398 42.9572 108.738 40.1212 108.738 36.4932C108.738 32.6812 106 30.0292 102.492 30.0292C98.986 30.0292 96.272 32.6812 96.272 36.4932C96.272 40.1812 99.01 42.9572 102.492 42.9572Z" fill="white"/>
<path d="M115.188 45.6932V27.3012C116.222 27.3012 119.17 27.2412 120.476 27.2412C125.95 27.2412 127.696 30.1372 127.696 33.1872C127.696 36.3152 125.332 39.1332 120.886 39.1332C120.326 39.1332 119.266 39.1332 118.478 39.0572V45.7052L115.188 45.6932ZM118.454 30.3212V35.9712C119.23 36.0472 120.024 36.1012 120.77 36.1012C122.708 36.1012 124.224 35.1812 124.224 33.1272C124.224 31.2132 123.02 30.2672 120.794 30.2672C120.134 30.2672 119.334 30.2672 118.454 30.3212Z" fill="white"/>
<path d="M139.61 27.0092C145.14 27.0092 149.314 30.7672 149.314 36.5232C149.314 42.0432 145.14 46.0372 139.61 46.0372C134.08 46.0372 129.93 42.2852 129.93 36.5232C129.93 31.1712 133.894 27.0092 139.61 27.0092ZM139.61 42.9572C143.514 42.9572 145.856 40.1212 145.856 36.4932C145.856 32.6812 143.116 30.0292 139.61 30.0292C136.102 30.0292 133.384 32.6812 133.384 36.4932C133.384 40.1812 136.126 42.9572 139.61 42.9572Z" fill="white"/>
<path d="M149.6 42.6712H152.134C154.27 33.5152 155.558 27.2952 155.558 27.2952H166.194V42.6712H168.74V48.9812H165.684V45.6932H152.664V48.9812H149.602L149.6 42.6712ZM155.396 42.6712H162.952V30.3212H158.032C158.032 30.3212 156.87 36.2672 155.396 42.6712Z" fill="white"/>
</svg>
