<svg width="25" height="14" viewBox="0 0 25 14" fill="none" xmlns="http://www.w3.org/2000/svg">
<mask id="mask0_2001_2801" style="mask-type:luminance" maskUnits="userSpaceOnUse" x="2" y="0" width="21" height="14">
<path d="M2.16992 0H22.1699V14H2.16992V0Z" fill="white"/>
</mask>
<g mask="url(#mask0_2001_2801)">
<path d="M22.17 7.00038C22.17 8.16009 21.8437 9.2964 21.2285 10.2795C20.6132 11.2625 19.7338 12.0527 18.6908 12.5596C17.6477 13.0665 16.4831 13.2698 15.33 13.1461C14.1769 13.0225 13.0819 12.5769 12.17 11.8604C11.4879 12.396 10.7008 12.7822 9.85975 12.9938C9.0187 13.2054 8.14254 13.2377 7.28819 13.0886C6.43385 12.9395 5.62042 12.6123 4.90077 12.1283C4.18111 11.6444 3.57132 11.0144 3.111 10.2794C2.33735 9.04603 2.02398 7.57913 2.22614 6.13731C2.4283 4.6955 3.13301 3.37135 4.21603 2.39832C5.29904 1.42529 6.69081 0.865867 8.14597 0.818679C9.60113 0.77149 11.0262 1.23957 12.17 2.14038C13.0816 1.42355 14.1765 0.977679 15.3296 0.853753C16.4827 0.729827 17.6473 0.932843 18.6905 1.43959C19.7336 1.94634 20.6131 2.73638 21.2284 3.71938C21.8437 4.70238 22.17 5.83868 22.17 6.99838V7.00038ZM21.577 10.6304V10.8294H21.541V10.6294H21.453V10.5894H21.657V10.6294H21.577V10.6304ZM21.973 10.5894V10.8294L21.937 10.8314V10.6494L21.87 10.8054H21.824L21.757 10.6494V10.8294H21.712V10.5894H21.767L21.839 10.7604L21.912 10.5894H21.973Z" fill="#9CA5B6"/>
</g>
</svg>
