<svg width="36" height="16" viewBox="0 0 36 16" fill="none" xmlns="http://www.w3.org/2000/svg">
<path d="M9.8046 2.97494V2.9707H12.9684V13.0295H9.80565V7.05988H9.54201L7.69754 13.0295H5.50048L3.65601 7.05564H3.3913V13.0295H0.230713V2.9707H3.39342C3.39342 2.9707 4.78048 2.96647 5.15107 4.28788C5.58665 5.8411 6.02571 7.39334 6.46824 8.94459H6.73189C6.75836 8.85247 7.7113 5.50553 8.04907 4.29317C8.41754 2.97282 9.79612 2.97494 9.80671 2.97494H9.8046ZM19.9958 4.02423C20.4299 3.05435 21.3574 2.9707 21.3574 2.9707H24.3444V13.0295H21.1817V7.05564H20.918L18.722 11.976C18.2879 12.9416 17.3159 13.0295 17.3159 13.0295H14.33V2.9707H17.4917V8.94459H17.7564L19.9958 4.02423ZM25.7505 7.53847V13.0295H28.9132V9.82341H32.3395C33.8325 9.82341 35.0988 8.87047 35.569 7.53847H25.7505ZM25.31 2.9707H32.3427C32.7927 2.97056 33.2383 3.05909 33.6541 3.23124C34.0699 3.40338 34.4476 3.65575 34.7658 3.97395C35.084 4.29214 35.3364 4.66992 35.5085 5.08568C35.6807 5.50145 35.7692 5.94706 35.7691 6.39706C35.7691 6.63847 35.7479 6.87141 35.6992 7.10012H30.278C29.0981 7.1 27.9554 6.68704 27.0481 5.93283C26.1407 5.17862 25.5258 4.1307 25.31 2.9707Z" fill="#9CA5B6"/>
</svg>
