<svg width="18" height="18" viewBox="0 0 18 18" fill="none" xmlns="http://www.w3.org/2000/svg">
<path d="M6.96975 4.71971C6.82915 4.86036 6.75016 5.05109 6.75016 5.24996C6.75016 5.44883 6.82915 5.63957 6.96975 5.78021L10.1895 8.99996L6.96975 12.2197C6.89812 12.2889 6.84098 12.3717 6.80167 12.4632C6.76237 12.5547 6.74168 12.6531 6.74081 12.7527C6.73995 12.8522 6.75892 12.951 6.79663 13.0432C6.83434 13.1353 6.89003 13.2191 6.96045 13.2895C7.03087 13.3599 7.11461 13.4156 7.20678 13.4533C7.29896 13.491 7.39772 13.51 7.4973 13.5091C7.59689 13.5083 7.6953 13.4876 7.7868 13.4483C7.87831 13.409 7.96106 13.3518 8.03025 13.2802L11.7803 9.53021C11.9209 9.38957 11.9998 9.19883 11.9998 8.99996C11.9998 8.80109 11.9209 8.61036 11.7803 8.46971L8.03025 4.71971C7.8896 4.57911 7.69887 4.50012 7.5 4.50012C7.30113 4.50012 7.1104 4.57911 6.96975 4.71971Z" fill="#040404"/>
</svg>
