<svg width="20" height="24" viewBox="0 0 20 24" fill="none" xmlns="http://www.w3.org/2000/svg">
<path fill-rule="evenodd" clip-rule="evenodd" d="M12.9234 10.5483C13.465 10.2142 14.1792 10.3733 14.5192 10.905C14.5999 11.031 14.6545 11.1718 14.6799 11.3192C14.7053 11.4666 14.701 11.6176 14.6671 11.7633C14.6333 11.909 14.5706 12.0464 14.4828 12.1675C14.395 12.2886 14.2838 12.3909 14.1559 12.4683C13.4486 12.9043 12.6735 13.2191 11.8625 13.4L14.0709 15.5642C14.1782 15.6683 14.2636 15.7929 14.3219 15.9306C14.3802 16.0683 14.4102 16.2163 14.4102 16.3658C14.4102 16.5154 14.3802 16.6634 14.3219 16.8011C14.2636 16.9388 14.1782 17.0634 14.0709 17.1675C13.852 17.3806 13.5585 17.4999 13.253 17.4999C12.9474 17.4999 12.654 17.3806 12.435 17.1675L10.265 15.0408L8.09588 17.1675C7.87722 17.3813 7.58336 17.5007 7.27755 17.5C6.97202 17.5005 6.6785 17.3811 6.46005 17.1675C6.3529 17.0633 6.26773 16.9386 6.20958 16.801C6.15142 16.6633 6.12146 16.5153 6.12146 16.3658C6.12146 16.2164 6.15142 16.0684 6.20958 15.9307C6.26773 15.793 6.3529 15.6684 6.46005 15.5642L8.66671 13.4C7.85614 13.2188 7.08138 12.904 6.37421 12.4683C6.24633 12.3908 6.13526 12.2885 6.04754 12.1673C5.95982 12.0462 5.89722 11.9088 5.86344 11.7631C5.82966 11.6174 5.82538 11.4664 5.85084 11.319C5.8763 11.1717 5.931 11.0309 6.01171 10.905C6.1783 10.649 6.43846 10.4683 6.73654 10.4017C7.03462 10.335 7.34695 10.3877 7.60671 10.5483C8.40721 11.0373 9.32704 11.2959 10.265 11.2959C11.203 11.2959 12.1229 11.0373 12.9234 10.5483ZM10.265 2.5C12.4434 2.5 14.215 4.23667 14.215 6.37167C14.215 8.50583 12.4434 10.2417 10.265 10.2417C8.08755 10.2417 6.31588 8.50583 6.31588 6.37167C6.31588 4.23667 8.08755 2.5 10.2659 2.5H10.265ZM10.265 4.76917C9.36421 4.76917 8.63005 5.4875 8.63005 6.37167C8.63005 7.255 9.36421 7.97417 10.265 7.97417C11.1667 7.97417 11.9009 7.255 11.9009 6.37167C11.9009 5.48833 11.1675 4.76917 10.265 4.76917Z" fill="#707783"/>
</svg>
