<svg width="27" height="28" viewBox="0 0 27 28" fill="none" xmlns="http://www.w3.org/2000/svg">
<path d="M14.782 0.684178C14.3542 0.452505 13.8754 0.331177 13.389 0.331177C12.9025 0.331177 12.4237 0.452505 11.996 0.684178L0.949966 6.66818C0.803391 6.74744 0.68095 6.86483 0.59558 7.00793C0.51021 7.15104 0.465083 7.31454 0.464966 7.48118V19.2902C0.464966 20.3632 1.05297 21.3502 1.99697 21.8622L12.95 27.7942C13.0851 27.8673 13.2363 27.9055 13.39 27.9055C13.5436 27.9055 13.6948 27.8673 13.83 27.7942L24.783 21.8622C25.2463 21.6112 25.6333 21.2398 25.9029 20.787C26.1726 20.3343 26.315 19.8171 26.315 19.2902V7.48118C26.3149 7.31465 26.27 7.15121 26.1848 7.00811C26.0996 6.86502 25.9774 6.74757 25.831 6.66818L14.782 0.684178ZM12.877 2.31018C13.197 2.13718 13.582 2.13718 13.901 2.31018L23.431 7.47218L19.391 9.61218L9.33997 4.22818L12.878 2.31118L12.877 2.31018ZM3.34697 7.47218L7.39197 5.28218L17.422 10.6572L13.39 12.7942L3.34797 7.47218H3.34697ZM2.31497 19.2912V9.01818L12.465 14.3982V25.4282L2.87797 20.2352C2.70772 20.143 2.56554 20.0065 2.46644 19.8401C2.36734 19.6738 2.31501 19.4848 2.31497 19.2912ZM14.315 25.4292V14.3992L24.465 9.01918V19.2912C24.465 19.6852 24.249 20.0482 23.902 20.2362L14.315 25.4292Z" fill="white"/>
</svg>
