<svg width="24" height="24" viewBox="0 0 24 24" fill="none" xmlns="http://www.w3.org/2000/svg">
<path d="M12.4481 7.16597C12.5331 7.00597 12.6631 6.79397 12.8431 6.59797C13.0231 6.40197 13.2581 6.21597 13.5541 6.12097C13.8541 6.02397 14.1971 6.02497 14.5801 6.17797C15.2911 6.46097 15.7211 6.86297 15.7221 7.48897C15.7221 7.78297 15.6251 8.09897 15.4611 8.43497C15.2566 8.83181 15.0177 9.20993 14.7471 9.56497C14.4321 9.99297 14.1121 10.236 13.7801 10.24C13.4441 10.242 13.1961 9.99997 13.0181 9.72397C12.5981 9.06497 12.0451 7.93397 12.4481 7.16597ZM8.30407 8.42997C7.95807 8.68997 7.68607 9.04697 7.52207 9.45797C6.94607 10.897 8.03907 11.574 9.38207 11.791C9.73907 11.848 10.1111 11.841 10.4011 11.684C10.5568 11.6012 10.6834 11.4728 10.7641 11.316C10.8517 11.1357 10.892 10.9361 10.8811 10.736C10.8591 9.93097 10.5691 9.09397 10.1171 8.57997C9.89007 8.32197 9.60907 8.12997 9.28707 8.08697C8.96007 8.04197 8.62407 8.15197 8.30407 8.42997ZM18.8321 10.023C18.3931 9.62297 17.6881 9.46997 17.1121 9.63097C16.3571 9.84097 15.8571 11.079 15.7721 11.814C15.7391 12.102 15.7801 12.594 16.0291 12.794C16.2621 12.98 16.6241 13.042 17.1111 13C18.0871 12.916 18.9681 12.452 19.3161 11.91C19.4941 11.635 19.5631 11.32 19.5001 11C19.4381 10.685 19.1271 10.285 18.8321 10.023ZM11.0651 17.184C12.5661 18.009 13.7751 17.914 14.6161 17.594C16.6811 16.808 15.9171 14.702 14.8761 13.146C14.5481 12.656 14.1191 12.267 13.5541 12.116C12.9881 11.964 12.3201 12.059 11.5371 12.47C10.7801 12.867 10.1771 13.243 9.74807 13.614C9.32207 13.981 9.03707 14.369 8.97407 14.794C8.90907 15.229 9.08807 15.635 9.43907 16.018C9.78907 16.398 10.3331 16.782 11.0651 17.184Z" fill="white"/>
<path d="M3 3C2.46957 3 1.96086 3.21071 1.58579 3.58579C1.21071 3.96086 1 4.46957 1 5V19C1 19.5304 1.21071 20.0391 1.58579 20.4142C1.96086 20.7893 2.46957 21 3 21H21C21.5304 21 22.0391 20.7893 22.4142 20.4142C22.7893 20.0391 23 19.5304 23 19V5C23 4.46957 22.7893 3.96086 22.4142 3.58579C22.0391 3.21071 21.5304 3 21 3H3ZM3 5H21V19H3V5Z" fill="white"/>
</svg>
