<svg width="16" height="17" viewBox="0 0 16 17" fill="none" xmlns="http://www.w3.org/2000/svg">
<path fill-rule="evenodd" clip-rule="evenodd" d="M12.239 4.82918C12.205 4.74518 12.114 4.71618 12.053 4.74018L3.82201 7.96418C3.80591 7.97026 3.79146 7.98003 3.77982 7.99271C3.76819 8.00539 3.75969 8.02062 3.75501 8.03718C3.74596 8.07493 3.75169 8.11471 3.77102 8.14836C3.79036 8.18201 3.82184 8.207 3.85901 8.21818L7.21501 9.27818C7.32977 9.31447 7.43412 9.37785 7.51923 9.46296C7.60434 9.54807 7.66772 9.65242 7.70401 9.76718L8.76401 13.1222C8.77701 13.1662 8.81101 13.2022 8.85401 13.2202C8.93101 13.2522 8.99601 13.2132 9.01701 13.1602L12.242 4.93018C12.2539 4.8977 12.2528 4.8609 12.239 4.82918ZM11.505 3.34318C11.803 3.22833 12.1279 3.20242 12.4404 3.26861C12.7528 3.3348 13.0393 3.49024 13.2651 3.71606C13.491 3.94189 13.6464 4.2284 13.7126 4.54083C13.7788 4.85326 13.7529 5.17819 13.638 5.47618L10.414 13.7072C10.3351 13.9072 10.2171 14.0895 10.067 14.2435C9.91683 14.3975 9.73755 14.52 9.53956 14.604C9.34158 14.6879 9.12886 14.7316 8.91381 14.7325C8.69876 14.7334 8.48568 14.6915 8.28701 14.6092C8.06187 14.5171 7.85973 14.3767 7.69487 14.1978C7.53002 14.019 7.40648 13.8061 7.33301 13.5742L6.39101 10.5912L3.40701 9.64818C2.99447 9.51848 2.64923 9.23218 2.44544 8.85076C2.24164 8.46935 2.19553 8.02322 2.31701 7.60818C2.38692 7.37346 2.50945 7.15778 2.67529 6.97756C2.84113 6.79734 3.0459 6.65733 3.27401 6.56818L11.505 3.34318Z" fill="white"/>
</svg>
