<svg width="17" height="17" viewBox="0 0 17 17" fill="none" xmlns="http://www.w3.org/2000/svg">
<path d="M8.56924 13.0934C8.4099 12.9967 8.21004 12.9967 8.0507 13.0934L4.95857 14.9686C4.58613 15.1945 4.12304 14.8692 4.20917 14.4422L4.96523 10.6942C4.99929 10.5253 4.94404 10.3508 4.81901 10.2324L2.09203 7.64837C1.78311 7.35565 1.95782 6.83542 2.38079 6.78848L5.9857 6.38842C6.16539 6.36848 6.32032 6.25308 6.39089 6.08663L7.84963 2.64567C8.02194 2.23921 8.598 2.23921 8.77031 2.64567L10.229 6.08663C10.2996 6.25308 10.4546 6.36848 10.6343 6.38842L14.2392 6.78848C14.6622 6.83542 14.8369 7.35565 14.5279 7.64837L11.801 10.2324C11.6759 10.3508 11.6207 10.5253 11.6547 10.6942L12.4108 14.4422C12.4969 14.8692 12.0338 15.1945 11.6614 14.9686L8.56924 13.0934Z" fill="#FBB500"/>
</svg>
