<svg width="24" height="25" viewBox="0 0 24 25" fill="none" xmlns="http://www.w3.org/2000/svg">
<path d="M6.00024 11.4998C5.73503 11.4998 5.48067 11.6051 5.29314 11.7927C5.1056 11.9802 5.00024 12.2346 5.00024 12.4998C5.00024 12.765 5.1056 13.0194 5.29314 13.2069C5.48067 13.3944 5.73503 13.4998 6.00024 13.4998H15.5862L12.4932 16.5928C12.3111 16.7814 12.2103 17.034 12.2126 17.2962C12.2148 17.5584 12.32 17.8092 12.5054 17.9946C12.6908 18.18 12.9416 18.2852 13.2038 18.2875C13.466 18.2897 13.7186 18.1889 13.9072 18.0068L18.7012 13.2128C18.8405 13.0755 18.9366 12.9005 18.9777 12.7093C19.0187 12.5181 19.0029 12.3191 18.9322 12.1368C18.8819 12.0078 18.8053 11.8906 18.7072 11.7928L13.9072 6.99279C13.815 6.89728 13.7047 6.8211 13.5826 6.76869C13.4606 6.71628 13.3294 6.68869 13.1966 6.68754C13.0639 6.68638 12.9322 6.71169 12.8093 6.76197C12.6864 6.81225 12.5747 6.8865 12.4808 6.98039C12.387 7.07429 12.3127 7.18594 12.2624 7.30883C12.2121 7.43173 12.1868 7.56341 12.188 7.69619C12.1891 7.82897 12.2167 7.96019 12.2691 8.08219C12.3216 8.2042 12.3977 8.31454 12.4932 8.40679L15.5862 11.4998H6.00024Z" fill="#26A9E0"/>
</svg>
