<svg width="18" height="20" viewBox="0 0 18 20" fill="none" xmlns="http://www.w3.org/2000/svg">
<g filter="url(#filter0_d_2001_2809)">
<path d="M13.2802 6.97018C13.1395 6.82957 12.9488 6.75059 12.7499 6.75059C12.551 6.75059 12.3603 6.82957 12.2197 6.97018L8.99992 10.1899L5.78017 6.97018C5.71098 6.89854 5.62822 6.84141 5.53672 6.8021C5.44522 6.76279 5.3468 6.7421 5.24722 6.74124C5.14763 6.74037 5.04887 6.75935 4.9567 6.79706C4.86453 6.83477 4.78079 6.89046 4.71037 6.96088C4.63995 7.0313 4.58426 7.11504 4.54655 7.20721C4.50884 7.29938 4.48986 7.39814 4.49073 7.49773C4.49159 7.59731 4.51228 7.69573 4.55159 7.78723C4.5909 7.87873 4.64803 7.96149 4.71967 8.03068L8.46967 11.7807C8.61031 11.9213 8.80104 12.0003 8.99992 12.0003C9.19879 12.0003 9.38952 11.9213 9.53017 11.7807L13.2802 8.03068C13.4208 7.89003 13.4998 7.6993 13.4998 7.50043C13.4998 7.30155 13.4208 7.11082 13.2802 6.97018Z" fill="white"/>
</g>
<defs>
<filter id="filter0_d_2001_2809" x="-4" y="0" width="26" height="26" filterUnits="userSpaceOnUse" color-interpolation-filters="sRGB">
<feFlood flood-opacity="0" result="BackgroundImageFix"/>
<feColorMatrix in="SourceAlpha" type="matrix" values="0 0 0 0 0 0 0 0 0 0 0 0 0 0 0 0 0 0 127 0" result="hardAlpha"/>
<feOffset dy="4"/>
<feGaussianBlur stdDeviation="2"/>
<feComposite in2="hardAlpha" operator="out"/>
<feColorMatrix type="matrix" values="0 0 0 0 0 0 0 0 0 0 0 0 0 0 0 0 0 0 0.25 0"/>
<feBlend mode="normal" in2="BackgroundImageFix" result="effect1_dropShadow_2001_2809"/>
<feBlend mode="normal" in="SourceGraphic" in2="effect1_dropShadow_2001_2809" result="shape"/>
</filter>
</defs>
</svg>
