<svg width="20" height="24" viewBox="0 0 20 24" fill="none" xmlns="http://www.w3.org/2000/svg">
<path fill-rule="evenodd" clip-rule="evenodd" d="M3.53081 9.51873C7.55748 7.76456 10.2425 6.60789 11.5858 6.04873C15.4216 4.45373 16.2191 4.17623 16.7383 4.16706C16.8525 4.16539 17.1083 4.19373 17.2733 4.32789C17.4133 4.44123 17.4516 4.59456 17.47 4.70206C17.4883 4.80956 17.5116 5.05456 17.4933 5.24539C17.285 7.42956 16.3858 12.7296 15.9283 15.1754C15.735 16.2104 15.3533 16.5579 14.9841 16.5921C14.1825 16.6654 13.5733 16.0621 12.7966 15.5529C11.5808 14.7554 10.8941 14.2596 9.71331 13.4821C8.34998 12.5829 9.23414 12.0896 10.0116 11.2821C10.215 11.0712 13.7491 7.85706 13.8175 7.56539C13.8258 7.52873 13.8341 7.39206 13.7533 7.32039C13.6725 7.24873 13.5533 7.27373 13.4675 7.29289C13.345 7.32039 11.4033 8.60456 7.64081 11.1437C7.08997 11.5221 6.59081 11.7062 6.14331 11.6971C5.64998 11.6862 4.70164 11.4179 3.99581 11.1887C3.13081 10.9079 2.44414 10.7596 2.50414 10.2812C2.53498 10.0329 2.87748 9.77873 3.53081 9.51873Z" fill="#707783"/>
</svg>
