<svg width="20" height="24" viewBox="0 0 20 24" fill="none" xmlns="http://www.w3.org/2000/svg">
<path d="M15.8349 6.77967C15.0567 6.78212 14.2979 6.53697 13.6682 6.07967C12.9693 5.57495 12.4833 4.82812 12.3049 3.98467C12.2603 3.77027 12.2368 3.552 12.2349 3.33301H9.90989V9.47467L9.90739 12.8388C9.90739 13.738 9.29989 14.4997 8.46239 14.7688C8.17492 14.8612 7.8713 14.8924 7.57106 14.8604C7.27082 14.8284 6.9806 14.7339 6.71906 14.583C6.41365 14.4109 6.15831 14.1623 5.97815 13.8616C5.79799 13.5609 5.69922 13.2185 5.69156 12.868C5.67489 11.7313 6.62489 10.803 7.79989 10.803C8.03072 10.803 8.25322 10.8405 8.46239 10.9047V8.62717C8.23998 8.59467 8.01549 8.57852 7.79072 8.57884C6.50489 8.57884 5.30156 9.09551 4.44072 10.0272C3.7939 10.7247 3.40592 11.6231 3.34156 12.5722C3.26406 13.808 3.73156 14.9847 4.63906 15.8513C4.77239 15.978 4.91239 16.0963 5.05989 16.2072C5.84982 16.7921 6.8078 17.1058 7.79072 17.1013C8.01656 17.1013 8.24239 17.0847 8.46239 17.0522C9.39436 16.9211 10.2619 16.5014 10.9432 15.8522C11.3527 15.4677 11.6796 15.0038 11.9041 14.4889C12.1286 13.9741 12.246 13.4189 12.2491 12.8572L12.2374 7.83217C13.2801 8.60362 14.5437 9.0183 15.8407 9.01467V6.77717C15.8432 6.77967 15.8349 6.77967 15.8349 6.77967Z" fill="#707783"/>
</svg>
