<svg width="37" height="17" viewBox="0 0 37 17" fill="none" xmlns="http://www.w3.org/2000/svg">
<path d="M18.7595 6.44796C18.7404 7.99484 20.1387 8.85884 21.1917 9.37184C22.274 9.89834 22.6374 10.2358 22.634 10.7072C22.625 11.4272 21.77 11.7456 20.9701 11.758C19.574 11.7805 18.7617 11.3811 18.1171 11.0796L17.6142 13.4331C18.2611 13.7312 19.4592 13.9922 20.7035 14.0035C23.6217 14.0035 25.532 12.5635 25.541 10.3292C25.5522 7.49421 21.6204 7.33671 21.6485 6.06996C21.6564 5.68634 22.0231 5.27571 22.8264 5.17221C23.2246 5.11934 24.3226 5.07884 25.5669 5.65146L26.0551 3.37446C25.2239 3.06171 24.3434 2.90017 23.4552 2.89746C20.708 2.89746 18.7752 4.35771 18.7595 6.44796ZM30.7486 3.09546C30.2154 3.09546 29.7665 3.40596 29.5662 3.88296L25.397 13.837H28.3141L28.8935 12.2327H32.4575L32.795 13.837H35.3645L33.1212 3.09546H30.7486ZM31.157 5.99796L31.9985 10.0311H29.6922L31.157 5.99684V5.99796ZM15.2247 3.09546L12.9252 13.837H15.704L18.0024 3.09546H15.2236H15.2247ZM11.1129 3.09546L8.22049 10.4057L7.05049 4.18896C6.91324 3.49484 6.37099 3.09434 5.76799 3.09434H1.04187L0.974365 3.40596C1.94637 3.61634 3.04887 3.95721 3.71712 4.31946C4.12549 4.54221 4.24249 4.73571 4.37749 5.26446L6.59374 13.837H9.52999L14.0322 3.09321H11.1129V3.09546Z" fill="#9CA5B6"/>
</svg>
