<svg width="20" height="24" viewBox="0 0 20 24" fill="none" xmlns="http://www.w3.org/2000/svg">
<path fill-rule="evenodd" clip-rule="evenodd" d="M17.1467 6.44801C17.2583 6.10134 17.1467 5.84801 16.655 5.84801H15.0183C14.605 5.84801 14.415 6.06967 14.3033 6.30634C14.3033 6.30634 13.4617 8.32467 12.2858 9.63384C11.905 10.0122 11.73 10.1388 11.5233 10.1388C11.4125 10.1388 11.2692 10.0122 11.2692 9.66551V6.43217C11.2692 6.02217 11.1425 5.83301 10.7925 5.83301H8.21917C7.965 5.83301 7.80583 6.02217 7.80583 6.21134C7.80583 6.60551 8.39333 6.70051 8.4575 7.80467V10.2022C8.4575 10.7222 8.36167 10.8172 8.15583 10.8172C7.59917 10.8172 6.24917 8.78217 5.43917 6.46384C5.28083 6.00634 5.12083 5.83301 4.70833 5.83301H3.05583C2.57917 5.83301 2.5 6.05384 2.5 6.29051C2.5 6.71551 3.05583 8.86134 5.08917 11.6997C6.43917 13.6397 8.36167 14.6805 10.0933 14.6805C11.1417 14.6805 11.2692 14.4447 11.2692 14.0497V12.583C11.2692 12.1105 11.3642 12.0313 11.6983 12.0313C11.9367 12.0313 12.365 12.1572 13.3342 13.088C14.4467 14.1922 14.6367 14.6963 15.2567 14.6963H16.8925C17.3692 14.6963 17.5925 14.4597 17.465 14.003C17.3217 13.5447 16.7817 12.883 16.0825 12.0947C15.7017 11.653 15.1292 11.1638 14.955 10.928C14.7167 10.6113 14.78 10.4863 14.955 10.2013C14.9383 10.2013 16.9408 7.39467 17.1467 6.44801Z" fill="#707783"/>
</svg>
