<svg width="33" height="33" viewBox="0 0 33 33" fill="none" xmlns="http://www.w3.org/2000/svg">
<path d="M8.75 5.9812C8.48478 5.9812 8.23043 6.08656 8.04289 6.27409C7.85536 6.46163 7.75 6.71598 7.75 6.9812V27.3632L16.303 23.0872C16.4418 23.0178 16.5948 22.9817 16.75 22.9817C16.9052 22.9817 17.0582 23.0178 17.197 23.0872L25.75 27.3632V6.9812C25.75 6.71598 25.6446 6.46163 25.4571 6.27409C25.2696 6.08656 25.0152 5.9812 24.75 5.9812H8.75ZM5.75 6.9812C5.75 6.18555 6.06607 5.42249 6.62868 4.85988C7.19129 4.29727 7.95435 3.9812 8.75 3.9812H24.75C25.5456 3.9812 26.3087 4.29727 26.8713 4.85988C27.4339 5.42249 27.75 6.18555 27.75 6.9812V28.9812C27.7499 29.1516 27.7063 29.3191 27.6233 29.4679C27.5402 29.6167 27.4206 29.7418 27.2756 29.8314C27.1306 29.921 26.9652 29.972 26.795 29.9797C26.6248 29.9873 26.4554 29.9514 26.303 29.8752L16.75 25.0992L7.197 29.8752C7.04458 29.9514 6.87522 29.9873 6.70501 29.9797C6.53479 29.972 6.36935 29.921 6.22439 29.8314C6.07944 29.7418 5.95977 29.6167 5.87674 29.4679C5.79372 29.3191 5.75009 29.1516 5.75 28.9812V6.9812Z" fill="white"/>
</svg>
